<svg aria-hidden="true" style="position: absolute; width: 0; height: 0; overflow: hidden;" version="1.1" xmlns="http://www.w3.org/2000/svg" xmlns:xlink="http://www.w3.org/1999/xlink">
  <defs>
    <symbol id="icon-arrow" viewBox="0 0 68 32">
<path d="M1.898 14.618c-0.834 0.832-0.836 2.183-0.004 3.017l13.558 13.595c0.832 0.834 2.183 0.836 3.017 0.004s0.836-2.183 0.004-3.017l-12.052-12.084 12.084-12.052c0.834-0.832 0.836-2.183 0.004-3.017s-2.183-0.836-3.017-0.004l-13.595 13.558zM67.407 14.081l-64-0.085-0.006 4.267 64 0.085 0.006-4.267z"></path>
</symbol>
    <symbol id="icon-arrow-up" viewBox="0 0 59 32">
      <path d="M29.462 0.47l27.186 26.216c0.909 0.876 0.935 2.323 0.059 3.232s-2.323 0.935-3.232 0.059l-24.013-23.156-24.014 23.156c-0.909 0.876-2.356 0.85-3.232-0.059s-0.85-2.356 0.059-3.232l27.187-26.216z"></path>
    </symbol>
  
  
    <symbol id="icon-logo-name" viewBox="0 0 148 32">
      <path d="M42.371 22.014c-1.163 0-2.174-0.16-3.033-0.48s-1.523-0.771-1.989-1.354c-0.467-0.583-0.7-1.251-0.7-2.006v-0.123c0-0.131 0.041-0.238 0.123-0.32s0.188-0.123 0.319-0.123h3.021c0.295 0 0.442 0.049 0.442 0.148v0.148c0 0.312 0.168 0.57 0.504 0.775s0.765 0.308 1.289 0.308c0.458 0 0.827-0.078 1.105-0.234s0.417-0.365 0.417-0.628-0.147-0.455-0.442-0.579c-0.295-0.123-0.761-0.242-1.4-0.357-1.032-0.197-1.867-0.435-2.505-0.714-0.819-0.345-1.478-0.78-1.977-1.305s-0.749-1.231-0.749-2.117c0-1.28 0.495-2.294 1.486-3.040s2.296-1.12 3.917-1.12c1.097 0 2.059 0.176 2.886 0.529s1.469 0.849 1.928 1.489c0.458 0.64 0.688 1.379 0.688 2.216 0 0.082-0.041 0.152-0.123 0.209s-0.188 0.086-0.319 0.086h-2.923c-0.295 0-0.442-0.049-0.442-0.148v-0.148c0-0.312-0.147-0.566-0.442-0.763s-0.696-0.295-1.203-0.295c-0.458 0-0.831 0.078-1.118 0.234s-0.43 0.373-0.43 0.652c0 0.279 0.156 0.48 0.467 0.603s0.835 0.258 1.572 0.406c0.999 0.197 1.67 0.353 2.014 0.468 0.999 0.328 1.781 0.771 2.346 1.329s0.847 1.305 0.847 2.24c0 1.28-0.504 2.269-1.511 2.966s-2.362 1.046-4.065 1.046zM54.588 8.893c1.081 0 2.063 0.185 2.947 0.554s1.58 0.878 2.088 1.526c0.508 0.648 0.761 1.366 0.761 2.154v8.247c0 0.131-0.041 0.238-0.123 0.32s-0.188 0.123-0.319 0.123h-3.193c-0.131 0-0.237-0.041-0.319-0.123s-0.123-0.189-0.123-0.32v-0.492c0-0.082-0.020-0.131-0.061-0.148s-0.086 0.008-0.135 0.074c-0.655 0.804-1.711 1.206-3.168 1.206-1.294 0-2.325-0.308-3.095-0.923s-1.154-1.522-1.154-2.72c0-1.264 0.438-2.24 1.314-2.929s2.141-1.034 3.795-1.034h2.333c0.115 0 0.172-0.057 0.172-0.172v-0.418c0-0.443-0.143-0.792-0.43-1.046s-0.692-0.382-1.216-0.382c-0.377 0-0.7 0.062-0.97 0.185s-0.463 0.291-0.577 0.505c-0.082 0.115-0.16 0.201-0.233 0.258s-0.168 0.078-0.282 0.062l-3.291-0.418c-0.295-0.033-0.426-0.148-0.393-0.345 0.082-0.706 0.377-1.342 0.884-1.908s1.175-1.013 2.002-1.342c0.827-0.328 1.756-0.492 2.788-0.492zM54.17 19.085c0.622 0 1.134-0.16 1.535-0.48s0.602-0.743 0.602-1.268v-0.542c0-0.115-0.057-0.172-0.172-0.172h-1.424c-0.622 0-1.101 0.107-1.437 0.32s-0.504 0.533-0.504 0.96c0 0.361 0.123 0.648 0.368 0.862s0.589 0.32 1.032 0.32zM68.998 9.065c0.131 0 0.237 0.041 0.319 0.123s0.123 0.189 0.123 0.32v2.462c0 0.131-0.041 0.238-0.123 0.32s-0.188 0.123-0.319 0.123h-2.112c-0.115 0-0.172 0.057-0.172 0.172v8.788c0 0.131-0.041 0.238-0.123 0.32s-0.188 0.123-0.319 0.123h-3.193c-0.131 0-0.237-0.041-0.319-0.123s-0.123-0.189-0.123-0.32v-8.788c0-0.115-0.057-0.172-0.172-0.172h-1.179c-0.131 0-0.237-0.041-0.319-0.123s-0.123-0.189-0.123-0.32v-2.462c0-0.131 0.041-0.238 0.123-0.32s0.188-0.123 0.319-0.123h1.179c0.115 0 0.172-0.057 0.172-0.172v-0.615c0-0.968 0.172-1.727 0.516-2.277s0.892-0.935 1.646-1.157c0.753-0.222 1.776-0.308 3.070-0.258h0.86c0.131 0 0.237 0.041 0.319 0.123s0.123 0.189 0.123 0.32v1.945c0 0.131-0.041 0.238-0.123 0.32s-0.188 0.123-0.319 0.123h-0.81c-0.442 0.033-0.753 0.139-0.933 0.32s-0.27 0.484-0.27 0.911v0.246c0 0.115 0.057 0.172 0.172 0.172h2.112zM76.090 18.543c0.508 0 0.978-0.078 1.412-0.234s0.798-0.365 1.093-0.628c0.098-0.115 0.205-0.172 0.319-0.172 0.098 0 0.196 0.057 0.295 0.172l1.523 1.822c0.098 0.115 0.147 0.222 0.147 0.32 0 0.115-0.049 0.222-0.147 0.32-0.557 0.591-1.261 1.050-2.112 1.379s-1.76 0.492-2.726 0.492c-1.113 0-2.1-0.201-2.959-0.603s-1.568-0.964-2.125-1.686c-0.9-1.149-1.351-2.609-1.351-4.382 0-0.788 0.090-1.526 0.27-2.216 0.36-1.28 1.064-2.31 2.112-3.090s2.276-1.169 3.684-1.169c1.637 0 2.96 0.509 3.966 1.526s1.666 2.437 1.977 4.259c0.065 0.46 0.115 0.96 0.147 1.502 0 0.295-0.147 0.443-0.442 0.443h-7.417c-0.049 0-0.094 0.016-0.135 0.049s-0.053 0.082-0.037 0.148l0.147 0.492c0.164 0.394 0.45 0.702 0.86 0.923s0.909 0.332 1.498 0.332zM75.451 12.389c-0.835 0-1.4 0.402-1.695 1.206-0.065 0.164-0.106 0.287-0.123 0.369v0.049c0 0.098 0.057 0.148 0.172 0.148h3.365c0.065 0 0.111-0.020 0.135-0.062s0.029-0.086 0.012-0.135l-0.098-0.32c-0.131-0.394-0.344-0.702-0.639-0.923s-0.671-0.332-1.13-0.332zM90.206 9.533c0-0.131 0.041-0.238 0.123-0.32s0.188-0.123 0.319-0.123h3.193c0.131 0 0.237 0.041 0.319 0.123s0.123 0.189 0.123 0.32v10.856c0 2.248-0.651 3.857-1.953 4.825s-2.934 1.452-4.899 1.452c-0.622 0-1.351-0.058-2.186-0.172-0.278-0.049-0.409-0.213-0.393-0.492l0.123-2.733c0.016-0.312 0.188-0.443 0.516-0.394 0.655 0.131 1.228 0.197 1.719 0.197 0.933 0 1.666-0.213 2.198-0.64s0.798-1.1 0.798-2.019l-0.27 0.246c-0.573 0.542-1.392 0.812-2.456 0.812-1.081 0-2.071-0.238-2.972-0.714s-1.547-1.313-1.94-2.511c-0.262-0.788-0.393-1.756-0.393-2.905 0-1.264 0.156-2.298 0.467-3.102 0.377-1.018 0.978-1.83 1.805-2.437s1.789-0.911 2.886-0.911c1.146 0 2.038 0.336 2.677 1.009 0.049 0.066 0.094 0.090 0.135 0.074s0.061-0.066 0.061-0.148v-0.295zM89.985 17.164c0.147-0.378 0.221-0.993 0.221-1.846 0-0.443-0.016-0.792-0.049-1.046s-0.098-0.496-0.196-0.726c-0.131-0.361-0.34-0.644-0.626-0.849s-0.634-0.308-1.044-0.308c-0.77 0-1.318 0.386-1.646 1.157-0.246 0.46-0.368 1.067-0.368 1.822 0 0.804 0.106 1.395 0.319 1.772 0.147 0.345 0.368 0.624 0.663 0.837s0.647 0.32 1.056 0.32c0.835 0 1.392-0.378 1.67-1.132zM102.763 9.546c0-0.131 0.041-0.238 0.123-0.32s0.188-0.123 0.32-0.123h3.193c0.131 0 0.238 0.041 0.319 0.123s0.123 0.189 0.123 0.32v11.841c0 0.131-0.040 0.238-0.123 0.32s-0.188 0.123-0.319 0.123h-3.193c-0.132 0-0.238-0.041-0.32-0.123s-0.123-0.189-0.123-0.32v-0.616c0-0.082-0.020-0.131-0.061-0.148s-0.086 0.008-0.135 0.074c-0.688 0.886-1.702 1.329-3.046 1.329-1.244 0-2.251-0.394-3.021-1.182s-1.154-1.887-1.154-3.299v-8.001c0-0.131 0.040-0.238 0.123-0.32s0.188-0.123 0.319-0.123h3.193c0.132 0 0.238 0.041 0.32 0.123s0.123 0.189 0.123 0.32v7.065c0 0.574 0.147 1.034 0.442 1.379s0.696 0.517 1.204 0.517c0.458 0 0.838-0.14 1.142-0.418s0.487-0.648 0.552-1.108v-7.434zM113.6 8.893c1.081 0 2.063 0.185 2.947 0.554s1.58 0.878 2.088 1.526c0.507 0.648 0.761 1.366 0.761 2.154v8.247c0 0.131-0.040 0.238-0.123 0.32s-0.188 0.123-0.319 0.123h-3.193c-0.132 0-0.238-0.041-0.32-0.123s-0.123-0.189-0.123-0.32v-0.492c0-0.082-0.020-0.131-0.061-0.148s-0.086 0.008-0.135 0.074c-0.655 0.804-1.711 1.206-3.168 1.206-1.294 0-2.325-0.308-3.095-0.923s-1.154-1.522-1.154-2.72c0-1.264 0.438-2.24 1.314-2.929s2.14-1.034 3.794-1.034h2.333c0.114 0 0.172-0.057 0.172-0.172v-0.418c0-0.443-0.144-0.792-0.43-1.046s-0.692-0.382-1.216-0.382c-0.377 0-0.699 0.062-0.97 0.185s-0.463 0.291-0.577 0.505c-0.082 0.115-0.16 0.201-0.233 0.258s-0.168 0.078-0.282 0.062l-3.291-0.418c-0.294-0.033-0.425-0.148-0.393-0.345 0.082-0.706 0.377-1.342 0.884-1.908s1.175-1.013 2.002-1.342c0.826-0.328 1.755-0.492 2.788-0.492zM113.182 19.085c0.623 0 1.134-0.16 1.535-0.48s0.602-0.743 0.602-1.268v-0.542c0-0.115-0.058-0.172-0.172-0.172h-1.424c-0.623 0-1.101 0.107-1.436 0.32s-0.504 0.533-0.504 0.96c0 0.361 0.123 0.648 0.368 0.862s0.589 0.32 1.031 0.32zM126.889 8.918c0.524 0 0.949 0.090 1.277 0.271 0.212 0.115 0.294 0.295 0.245 0.542l-0.54 3.151c-0.016 0.213-0.123 0.32-0.319 0.32-0.082 0-0.147-0.008-0.197-0.025-0.197-0.049-0.442-0.074-0.737-0.074-0.261 0-0.458 0.016-0.59 0.049-0.507 0.066-0.937 0.263-1.289 0.591s-0.528 0.763-0.528 1.305v6.327c0 0.131-0.041 0.238-0.123 0.32s-0.188 0.123-0.319 0.123h-3.193c-0.131 0-0.238-0.041-0.319-0.123s-0.123-0.189-0.123-0.32v-11.841c0-0.131 0.041-0.238 0.123-0.32s0.188-0.123 0.319-0.123h3.193c0.131 0 0.238 0.041 0.319 0.123s0.123 0.189 0.123 0.32v0.542c0 0.082 0.020 0.131 0.061 0.148s0.078-0.008 0.111-0.074c0.655-0.821 1.489-1.231 2.505-1.231zM136.404 5.028c0-0.131 0.041-0.238 0.123-0.32s0.188-0.123 0.319-0.123h3.193c0.132 0 0.238 0.041 0.32 0.123s0.123 0.189 0.123 0.32v16.346c0 0.131-0.041 0.238-0.123 0.32s-0.188 0.123-0.32 0.123h-3.193c-0.131 0-0.237-0.041-0.319-0.123s-0.123-0.189-0.123-0.32v-0.591c0-0.082-0.021-0.131-0.061-0.148s-0.086 0.008-0.135 0.074c-0.623 0.87-1.555 1.305-2.8 1.305-1.065 0-2.047-0.353-2.948-1.059s-1.515-1.617-1.842-2.733c-0.262-0.804-0.393-1.748-0.393-2.831 0-1.165 0.172-2.199 0.517-3.102 0.376-1.018 0.987-1.842 1.829-2.474s1.788-0.948 2.837-0.948c1.244 0 2.177 0.377 2.8 1.132 0.049 0.066 0.094 0.090 0.135 0.074s0.061-0.066 0.061-0.148v-4.899zM135.962 17.484c0.279-0.525 0.418-1.198 0.418-2.019 0-0.903-0.147-1.625-0.442-2.166-0.344-0.558-0.818-0.837-1.424-0.837-0.638 0-1.129 0.287-1.473 0.862-0.295 0.542-0.442 1.255-0.442 2.142 0 0.837 0.139 1.518 0.418 2.043 0.344 0.607 0.843 0.911 1.498 0.911 0.623 0 1.105-0.312 1.449-0.936z"></path>
      <path d="M145.437 5.333c0.495 0 0.948 0.116 1.359 0.348s0.734 0.547 0.968 0.945 0.352 0.842 0.352 1.333c0 0.509-0.118 0.969-0.352 1.38s-0.557 0.735-0.968 0.972c-0.411 0.237-0.864 0.355-1.359 0.355s-0.946-0.118-1.353-0.355c-0.407-0.237-0.727-0.561-0.961-0.972s-0.352-0.871-0.352-1.38c0-0.491 0.117-0.936 0.352-1.333s0.554-0.712 0.961-0.945 0.858-0.348 1.353-0.348zM145.437 10.023c0.379 0 0.725-0.089 1.034-0.268s0.552-0.427 0.73-0.744c0.176-0.317 0.265-0.668 0.265-1.052 0-0.366-0.089-0.704-0.265-1.012s-0.421-0.549-0.73-0.724-0.655-0.261-1.034-0.261c-0.371 0-0.709 0.087-1.015 0.261s-0.546 0.415-0.722 0.724c-0.177 0.308-0.266 0.645-0.266 1.012 0 0.384 0.089 0.735 0.266 1.052s0.417 0.565 0.722 0.744c0.305 0.179 0.644 0.268 1.015 0.268zM146.352 7.518c0 0.286-0.106 0.491-0.318 0.616-0.035 0.027-0.048 0.063-0.039 0.107l0.265 0.724c0.009 0.027 0.013 0.058 0.013 0.094 0 0.098-0.061 0.147-0.186 0.147h-0.133c-0.114 0-0.194-0.058-0.239-0.174l-0.251-0.724c-0.009-0.045-0.040-0.067-0.093-0.067h-0.053c-0.053 0-0.080 0.027-0.080 0.080v0.67c0 0.143-0.070 0.214-0.212 0.214h-0.12c-0.141 0-0.212-0.071-0.212-0.214v-2.023c0-0.143 0.071-0.214 0.212-0.214h0.69c0.22 0 0.402 0.074 0.543 0.221s0.212 0.328 0.212 0.543zM145.317 7.223c-0.053 0-0.080 0.027-0.080 0.080v0.442c0 0.054 0.026 0.080 0.080 0.080h0.199c0.088 0 0.159-0.029 0.212-0.087s0.080-0.127 0.080-0.208c0-0.089-0.026-0.163-0.080-0.221s-0.124-0.087-0.212-0.087h-0.199z"></path>
      <path d="M28.049 7.282c0.613 0.347 0.991 0.991 0.991 1.69v14.044c0 0.698-0.378 1.343-0.991 1.689l-12.432 7.037c-0.606 0.343-1.35 0.343-1.956 0l-12.432-7.037c-0.613-0.347-0.991-0.991-0.991-1.689v-14.044c0-0.698 0.378-1.343 0.991-1.69l12.432-7.036c0.606-0.343 1.35-0.343 1.956 0l12.432 7.036zM26.559 8.25l-11.050-6.255c-0.538-0.305-1.2-0.305-1.738 0l-11.050 6.255c-0.545 0.308-0.881 0.881-0.881 1.502v12.483c0 0.621 0.336 1.194 0.881 1.502l11.050 6.255c0.538 0.305 1.2 0.305 1.738 0l11.050-6.255c0.545-0.308 0.881-0.881 0.881-1.502v-12.483c0-0.621-0.336-1.194-0.881-1.502z"></path>
      <path d="M23.162 10.356l-6.711-3.743c-0.545-0.304-1.226 0.076-1.226 0.684v5.943c0 0-0.006 0.069 0.062 0.137 0.054 0.053 0.134 0.053 0.134 0.053h2.584c0 0 0.083 0.001 0.142-0.062 0.057-0.061 0.054-0.127 0.054-0.127v-2.017c0-0.196 0.211-0.324 0.394-0.241l5.119 2.345c0.11 0.050 0.236-0.027 0.236-0.144v-1.507c0-0.544-0.301-1.048-0.789-1.32z"></path>
      <path d="M23.423 14.814h-14.873c-0.247 0-0.448-0.194-0.448-0.432v-1.82c0-0.247 0.147-0.472 0.378-0.578l2.205-1.010c0.174-0.080 0.375 0.043 0.375 0.229v2.037c0 0.104 0.088 0.189 0.196 0.189h2.584c0.108 0 0.196-0.085 0.196-0.189v-5.943c0-0.608-0.681-0.987-1.226-0.683l-6.711 3.743c-0.488 0.272-0.789 0.775-0.789 1.32v5.068c0 0.236 0.198 0.428 0.443 0.428h4.859c0.022 0 0.043 0.002 0.064 0.005h7.817c0.017-0.002 0.034-0.005 0.051-0.005h2.27c0.19 0 0.344 0.149 0.344 0.333v1.922c0 0.245-0.146 0.469-0.376 0.574l-2.189 1.003c-0.183 0.084-0.394-0.045-0.394-0.241v-2.023c0 0 0.005-0.069-0.053-0.132-0.056-0.060-0.145-0.059-0.145-0.059h-2.582c0 0-0.094-0.004-0.15 0.055-0.050 0.052-0.046 0.135-0.046 0.135v5.949c0 0.608 0.681 0.987 1.226 0.684l6.711-3.743c0.488-0.272 0.789-0.775 0.789-1.32v-4.986c0-0.281-0.236-0.51-0.528-0.51z"></path>
      <path d="M13.842 18.551h-2.586c0 0-0.067-0.009-0.139 0.051-0.065 0.054-0.056 0.139-0.056 0.139v2.043c0 0.186-0.201 0.309-0.375 0.229l-2.205-1.010c-0.231-0.106-0.378-0.331-0.378-0.578v-0.684c0-0.105-0.088-0.189-0.196-0.189h-2.398c-0.108 0-0.196 0.085-0.196 0.189v1.778h0.015c0.066 0.462 0.349 0.875 0.774 1.112l6.711 3.743c0.545 0.304 1.226-0.076 1.226-0.684v-5.949c0 0 0.008-0.095-0.051-0.147s-0.145-0.043-0.145-0.043z"></path>
    </symbol>
  </defs>
</svg>
